<svg xmlns="http://www.w3.org/2000/svg" version="1.1" xmlns:xlink="http://www.w3.org/1999/xlink" xmlns:svgjs="http://svgjs.dev/svgjs" width="1440" height="560" preserveAspectRatio="none" viewBox="0 0 1440 560"><g mask="url(&quot;#SvgjsMask1002&quot;)" fill="none"><rect width="1440" height="560" x="0" y="0" fill="url(&quot;#SvgjsLinearGradient1003&quot;)"></rect><path d="M1440 0L746.62 0L1440 66.36z" fill="rgba(255, 255, 255, .1)"></path><path d="M746.62 0L1440 66.36L1440 213.70999999999998L492.34000000000003 0z" fill="rgba(255, 255, 255, .075)"></path><path d="M492.34000000000003 0L1440 213.70999999999998L1440 298.02L480.20000000000005 0z" fill="rgba(255, 255, 255, .05)"></path><path d="M480.20000000000005 0L1440 298.02L1440 375.99L168.52000000000004 0z" fill="rgba(255, 255, 255, .025)"></path><path d="M0 560L17.62 560L0 312.72z" fill="rgba(0, 0, 0, .1)"></path><path d="M0 312.72L17.62 560L418.15 560L0 168.74000000000004z" fill="rgba(0, 0, 0, .075)"></path><path d="M0 168.74L418.15 560L573.5 560L0 76.17000000000002z" fill="rgba(0, 0, 0, .05)"></path><path d="M0 76.17000000000002L573.5 560L955.9 560L0 22.94000000000002z" fill="rgba(0, 0, 0, .025)"></path></g><defs><mask id="SvgjsMask1002"><rect width="1440" height="560" fill="#ffffff"></rect></mask><linearGradient x1="15.28%" y1="-39.29%" x2="84.72%" y2="139.29%" gradientUnits="userSpaceOnUse" id="SvgjsLinearGradient1003"><stop stop-color="#0e2a47" offset="0"></stop><stop stop-color="#00459e" offset="1"></stop></linearGradient></defs></svg>